<svg width="28" height="28" viewBox="0 0 28 28" version="1.1" xmlns="http://www.w3.org/2000/svg" xmlns:xlink="http://www.w3.org/1999/xlink">
<title>Frame 5</title>
<desc>Created using Figma</desc>
<g id="Canvas" transform="translate(-3838 8729)">
<clipPath id="clip-0" clip-rule="evenodd">
<path d="M 3838 -8729L 3866 -8729L 3866 -8701L 3838 -8701L 3838 -8729Z" fill="#FFFFFF"/>
</clipPath>
<g id="Frame 5" clip-path="url(#clip-0)">
<g id="Group 2.1">
<g id="Union">
<use xlink:href="#path0_fill" transform="translate(3838.5 -8724.75)" fill="#FFFFFF"/>
</g>
</g>
</g>
</g>
<defs>
<path id="path0_fill" fill-rule="evenodd" d="M 13.5282 0.0455387C 13.3942 -0.0159847 13.2401 -0.0150082 13.1068 0.0474918L 0.287247 6.08851C 0.108537 6.17249 -0.00401228 6.35413 0.00062639 6.55237C 0.00502092 6.74964 0.125382 6.9264 0.307755 7.00257L 3.83144 8.47327L 0.286759 10.1432C 0.108048 10.2282 -0.00450056 10.4098 0.000138109 10.6071C 0.00453264 10.8043 0.124894 10.9811 0.307267 11.0573L 3.77187 12.5035L 0.287492 14.1451C 0.108781 14.2301 -0.00376814 14.4117 0.000870531 14.609C 0.00526506 14.8063 0.125626 14.983 0.307999 15.0592L 13.1276 20.4108C 13.2492 20.4616 13.3861 20.4616 13.5082 20.4127L 26.6886 15.0612C 26.8737 14.986 26.996 14.8082 27.0004 14.609C 27.005 14.4098 26.8903 14.2262 26.7089 14.1432L 23.131 12.5035L 26.6879 11.0592C 26.8729 10.984 26.9953 10.8063 26.9999 10.6071C 27.0043 10.4078 26.8895 10.2242 26.7081 10.1412L 23.0695 8.47327L 26.6884 7.00452C 26.8734 6.92933 26.9957 6.75159 27.0004 6.55237C 27.0048 6.35218 26.89 6.16956 26.7086 6.08655L 13.5282 0.0455387ZM 21.7916 8.98792L 13.508 12.3551C 13.3859 12.4049 13.2489 12.4039 13.1273 12.3532L 5.07509 8.9928L 1.73158 10.568L 13.3222 15.4069L 25.2392 10.568L 21.7916 8.98792ZM 1.73207 6.51331L 13.3229 1.0514L 25.2396 6.51331L 13.3226 11.3512L 1.73207 6.51331ZM 13.5075 16.4108L 21.8583 13.0201L 25.2399 14.57L 13.3229 19.4088L 1.73232 14.57L 5.01552 13.0231L 13.1268 16.4088C 13.2484 16.4596 13.3854 16.4596 13.5075 16.4108Z"/>
</defs>
</svg>
